<?xml version="1.0" encoding="UTF-8"?>
<svg xmlns="http://www.w3.org/2000/svg" xmlns:xlink="http://www.w3.org/1999/xlink" width="375pt" height="374.999991pt" viewBox="0 0 375 374.999991" version="1.2">
<defs>
<clipPath id="clip1">
  <path d="M 81.84375 103 L 136 103 L 136 317.492188 L 81.84375 317.492188 Z M 81.84375 103 "/>
</clipPath>
<clipPath id="clip2">
  <path d="M 160 103 L 293.34375 103 L 293.34375 317.492188 L 160 317.492188 Z M 160 103 "/>
</clipPath>
<clipPath id="clip3">
  <path d="M 81.84375 103 L 215 103 L 215 317.492188 L 81.84375 317.492188 Z M 81.84375 103 "/>
</clipPath>
<clipPath id="clip4">
  <path d="M 239 103 L 293.34375 103 L 293.34375 317.492188 L 239 317.492188 Z M 239 103 "/>
</clipPath>
<clipPath id="clip5">
  <path d="M 152 48.242188 L 223 48.242188 L 223 119 L 152 119 Z M 152 48.242188 "/>
</clipPath>
<clipPath id="clip6">
  <path d="M 144.46875 42.421875 L 230.71875 42.421875 L 230.71875 128.671875 L 144.46875 128.671875 Z M 144.46875 42.421875 "/>
</clipPath>
<clipPath id="clip7">
  <path d="M 143 39.363281 L 248 39.363281 L 248 131.613281 L 143 131.613281 Z M 143 39.363281 "/>
</clipPath>
</defs>
<g id="surface1">
<g clip-path="url(#clip1)" clip-rule="nonzero">
<path style=" stroke:none;fill-rule:nonzero;fill:rgb(20.779419%,21.569824%,23.139954%);fill-opacity:1;" d="M 135.914062 103.304688 L 81.847656 103.304688 L 81.847656 317.402344 L 135.914062 317.402344 L 135.914062 103.304688 "/>
</g>
<g clip-path="url(#clip2)" clip-rule="nonzero">
<path style=" stroke:none;fill-rule:nonzero;fill:rgb(20.779419%,21.569824%,23.139954%);fill-opacity:1;" d="M 293.34375 103.304688 L 239.277344 246.546875 L 214.632812 311.851562 L 212.535156 317.402344 L 162.652344 317.402344 L 160.5625 311.851562 L 187.59375 240.234375 L 239.277344 103.304688 L 293.34375 103.304688 "/>
</g>
<g clip-path="url(#clip3)" clip-rule="nonzero">
<path style=" stroke:none;fill-rule:nonzero;fill:rgb(100%,59.609985%,26.269531%);fill-opacity:1;" d="M 214.632812 311.851562 L 212.535156 317.402344 L 162.652344 317.402344 L 160.5625 311.851562 L 135.910156 246.546875 L 81.84375 103.304688 L 135.910156 103.304688 L 187.59375 240.234375 L 214.632812 311.851562 "/>
</g>
<g clip-path="url(#clip4)" clip-rule="nonzero">
<path style=" stroke:none;fill-rule:nonzero;fill:rgb(100%,59.609985%,26.269531%);fill-opacity:1;" d="M 293.339844 103.304688 L 239.277344 103.304688 L 239.277344 317.402344 L 293.339844 317.402344 L 293.339844 103.304688 "/>
</g>
<g clip-path="url(#clip5)" clip-rule="nonzero">
<path style=" stroke:none;fill-rule:nonzero;fill:rgb(100%,59.609985%,26.269531%);fill-opacity:1;" d="M 222.648438 83.328125 C 222.648438 102.640625 206.953125 118.300781 187.59375 118.300781 C 168.234375 118.300781 152.539062 102.640625 152.539062 83.328125 C 152.539062 64.011719 168.234375 48.351562 187.59375 48.351562 C 206.953125 48.351562 222.648438 64.011719 222.648438 83.328125 "/>
</g>
<g clip-path="url(#clip6)" clip-rule="nonzero">
<path style=" stroke:none;fill-rule:nonzero;fill:rgb(100%,59.609985%,26.269531%);fill-opacity:1;" d="M 144.46875 85.546875 C 144.46875 61.730469 163.78125 42.421875 187.59375 42.421875 C 211.40625 42.421875 230.71875 61.730469 230.71875 85.546875 C 230.71875 109.359375 211.40625 128.671875 187.59375 128.671875 C 163.78125 128.671875 144.46875 109.359375 144.46875 85.546875 Z M 144.46875 85.546875 "/>
</g>
<path style=" stroke:none;fill-rule:nonzero;fill:rgb(100%,100%,100%);fill-opacity:1;" d="M 189.59375 57.90625 L 189.59375 61.125 C 191.714844 61.347656 193.523438 61.785156 195.050781 62.425781 C 196.5625 63.085938 197.882812 64.078125 199.015625 65.398438 C 199.902344 66.40625 200.597656 67.449219 201.082031 68.511719 C 201.570312 69.589844 201.8125 70.5625 201.8125 71.449219 C 201.8125 72.4375 201.449219 73.289062 200.734375 74.019531 C 200.003906 74.75 199.136719 75.097656 198.109375 75.097656 C 196.164062 75.097656 194.914062 74.054688 194.339844 71.953125 C 193.679688 69.484375 192.113281 67.832031 189.609375 67.015625 L 189.609375 79.375 C 192.0625 80.050781 194.027344 80.660156 195.484375 81.21875 C 196.945312 81.773438 198.25 82.574219 199.398438 83.617188 C 200.628906 84.710938 201.570312 86.015625 202.230469 87.527344 C 202.890625 89.039062 203.222656 90.707031 203.222656 92.496094 C 203.222656 94.757812 202.699219 96.878906 201.640625 98.84375 C 200.578125 100.804688 199.015625 102.421875 196.964844 103.675781 C 194.894531 104.925781 192.460938 105.671875 189.628906 105.898438 L 189.628906 113.304688 C 189.628906 114.46875 189.507812 115.320312 189.28125 115.859375 C 189.054688 116.398438 188.550781 116.660156 187.785156 116.660156 C 187.074219 116.660156 186.570312 116.433594 186.289062 116 C 185.996094 115.5625 185.855469 114.886719 185.855469 113.980469 L 185.855469 105.96875 C 183.542969 105.707031 181.511719 105.167969 179.789062 104.335938 C 178.050781 103.5 176.609375 102.476562 175.445312 101.222656 C 174.28125 99.988281 173.429688 98.703125 172.871094 97.363281 C 172.316406 96.027344 172.039062 94.722656 172.039062 93.4375 C 172.039062 92.480469 172.402344 91.628906 173.148438 90.863281 C 173.898438 90.097656 174.820312 89.714844 175.929688 89.714844 C 176.816406 89.714844 177.582031 89.925781 178.191406 90.34375 C 178.800781 90.757812 179.234375 91.351562 179.460938 92.097656 C 180 93.714844 180.46875 94.964844 180.851562 95.816406 C 181.25 96.6875 181.839844 97.46875 182.640625 98.183594 C 183.441406 98.894531 184.5 99.433594 185.839844 99.816406 L 185.839844 85.996094 C 183.179688 85.265625 180.972656 84.449219 179.179688 83.546875 C 177.390625 82.640625 175.949219 81.355469 174.835938 79.703125 C 173.722656 78.035156 173.167969 75.898438 173.167969 73.289062 C 173.167969 69.882812 174.246094 67.085938 176.417969 64.914062 C 178.589844 62.738281 181.71875 61.472656 185.820312 61.105469 L 185.820312 57.960938 C 185.820312 56.289062 186.445312 55.457031 187.699219 55.457031 C 188.949219 55.472656 189.59375 56.273438 189.59375 57.90625 M 185.804688 78.28125 L 185.804688 66.894531 C 184.136719 67.378906 182.847656 68.042969 181.910156 68.859375 C 180.972656 69.675781 180.519531 70.890625 180.519531 72.542969 C 180.519531 74.109375 180.953125 75.289062 181.824219 76.089844 C 182.710938 76.90625 184.03125 77.636719 185.804688 78.28125 M 189.59375 87.109375 L 189.59375 100.128906 C 191.59375 99.730469 193.140625 98.929688 194.234375 97.730469 C 195.328125 96.53125 195.867188 95.121094 195.867188 93.507812 C 195.867188 91.785156 195.347656 90.445312 194.285156 89.507812 C 193.207031 88.550781 191.644531 87.753906 189.59375 87.109375 "/>
<g clip-path="url(#clip7)" clip-rule="nonzero">
<path style=" stroke:none;fill-rule:nonzero;fill:rgb(20.779419%,21.569824%,23.139954%);fill-opacity:1;" d="M 210.761719 69.222656 L 233.082031 85.488281 L 247.621094 61.945312 L 243.710938 59.507812 L 234.160156 74.992188 C 229.390625 54.351562 211.035156 39.363281 189.453125 39.363281 C 164.128906 39.363281 143.523438 60.054688 143.523438 85.488281 C 143.523438 110.921875 164.128906 131.613281 189.453125 131.613281 C 209.25 131.613281 226.75 118.925781 233.011719 100.054688 L 228.652344 98.59375 C 223.019531 115.582031 207.265625 127 189.453125 127 C 166.65625 127 148.117188 108.378906 148.117188 85.488281 C 148.117188 62.59375 166.65625 43.972656 189.453125 43.972656 C 209.410156 43.972656 226.296875 58.203125 230.011719 77.554688 L 213.453125 65.484375 Z M 210.761719 69.222656 "/>
</g>
</g>
</svg>
